# xmcd
#
# Track frame offsets:
#	150
#	13374
#	25288
#	38367
#	50175
#	62559
#	76032
#	90831
#	101808
#	116171
#	130169
#	143807
#	155047
#	166630
#
# Disc length: 2405 seconds
#
# Revision: 0
# Processed by: cddbd v1.4PL0 Copyright (c) Steve Scherf et al.
# Submitted via: EasyCDDAExtractor 4.6.0.1
#
DISCID=ae09630e
DTITLE=Sam and Dave - Forever Gold
DYEAR=1970
DGENRE=R&B
TTITLE0=Soul Man
TTITLE1=Hold On I'm Coming
TTITLE2=I Thank You
TTITLE3=Soul Sister Brown Sugar
TTITLE4=Dock Of The Bay
TTITLE5=Gimme Some Lovin'
TTITLE6=When Something Is Wrong With My baby
TTITLE7=Bring It On Home
TTITLE8=You Send Me
TTITLE9=Summertime
TTITLE10=Wonderful World
TTITLE11=You Don't Kwon What You Mean To Me
TTITLE12=Can't You Find Another Way Of Doing It
TTITLE13=You Don't Know Like I Know
EXTD=
EXTT0=
EXTT1=
EXTT2=
EXTT3=
EXTT4=
EXTT5=
EXTT6=
EXTT7=
EXTT8=
EXTT9=
EXTT10=
EXTT11=
EXTT12=
EXTT13=
PLAYORDER=
